<svg width="327" height="327" viewBox="0 0 327 327" fill="none" xmlns="http://www.w3.org/2000/svg">
<path d="M327 163.5C327 253.799 253.799 327 163.5 327C73.2014 327 0 253.799 0 163.5C0 73.2014 73.2014 0 163.5 0C253.799 0 327 73.2014 327 163.5ZM32.7 163.5C32.7 235.739 91.2612 294.3 163.5 294.3C235.739 294.3 294.3 235.739 294.3 163.5C294.3 91.2612 235.739 32.7 163.5 32.7C91.2612 32.7 32.7 91.2612 32.7 163.5Z" fill="url(#paint0_linear_0_1)"/>
<path d="M79.376 184.864V148.512L81.744 155.616L71.76 160.032L69.904 148.704L83.024 142.56H91.664V184.864H79.376ZM70.672 188V177.056H100.56V188H70.672ZM126.216 188.64C121.906 188.64 118.237 187.744 115.208 185.952C112.221 184.117 109.938 181.493 108.36 178.08C106.824 174.624 106.056 170.464 106.056 165.6C106.056 160.736 106.824 156.597 108.36 153.184C109.938 149.728 112.221 147.104 115.208 145.312C118.237 143.477 121.906 142.56 126.216 142.56C130.525 142.56 134.194 143.477 137.224 145.312C140.253 147.104 142.536 149.728 144.072 153.184C145.65 156.597 146.44 160.736 146.44 165.6C146.44 170.464 145.65 174.624 144.072 178.08C142.536 181.493 140.253 184.117 137.224 185.952C134.194 187.744 130.525 188.64 126.216 188.64ZM126.216 178.08C128.818 178.08 130.824 177.013 132.232 174.88C133.682 172.704 134.408 169.611 134.408 165.6C134.408 161.419 133.682 158.197 132.232 155.936C130.824 153.675 128.818 152.544 126.216 152.544C123.613 152.544 121.586 153.675 120.135 155.936C118.728 158.197 118.024 161.419 118.024 165.6C118.024 169.611 118.728 172.704 120.135 174.88C121.586 177.013 123.613 178.08 126.216 178.08ZM171.341 188.64C167.031 188.64 163.362 187.744 160.333 185.952C157.346 184.117 155.063 181.493 153.485 178.08C151.949 174.624 151.181 170.464 151.181 165.6C151.181 160.736 151.949 156.597 153.485 153.184C155.063 149.728 157.346 147.104 160.333 145.312C163.362 143.477 167.031 142.56 171.341 142.56C175.65 142.56 179.319 143.477 182.349 145.312C185.378 147.104 187.661 149.728 189.197 153.184C190.775 156.597 191.565 160.736 191.565 165.6C191.565 170.464 190.775 174.624 189.197 178.08C187.661 181.493 185.378 184.117 182.349 185.952C179.319 187.744 175.65 188.64 171.341 188.64ZM171.341 178.08C173.943 178.08 175.949 177.013 177.357 174.88C178.807 172.704 179.533 169.611 179.533 165.6C179.533 161.419 178.807 158.197 177.357 155.936C175.949 153.675 173.943 152.544 171.341 152.544C168.738 152.544 166.711 153.675 165.26 155.936C163.853 158.197 163.149 161.419 163.149 165.6C163.149 169.611 163.853 172.704 165.26 174.88C166.711 177.013 168.738 178.08 171.341 178.08ZM206.098 188L235.73 143.2H246.546L216.594 188H206.098ZM208.402 166.944C206.14 166.944 204.092 166.411 202.258 165.344C200.466 164.235 199.058 162.72 198.034 160.8C197.01 158.88 196.498 156.725 196.498 154.336C196.498 151.819 196.988 149.621 197.97 147.744C198.994 145.824 200.402 144.331 202.194 143.264C203.986 142.155 206.055 141.6 208.402 141.6C210.748 141.6 212.818 142.155 214.61 143.264C216.402 144.331 217.788 145.824 218.77 147.744C219.751 149.621 220.242 151.819 220.242 154.336C220.242 156.725 219.73 158.88 218.706 160.8C217.682 162.677 216.274 164.171 214.482 165.28C212.69 166.389 210.663 166.944 208.402 166.944ZM208.402 159.584C209.042 159.584 209.554 159.371 209.938 158.944C210.364 158.517 210.684 157.92 210.898 157.152C211.111 156.341 211.218 155.403 211.218 154.336C211.218 153.269 211.111 152.331 210.898 151.52C210.684 150.709 210.364 150.091 209.938 149.664C209.554 149.195 209.042 148.96 208.402 148.96C207.804 148.96 207.292 149.195 206.866 149.664C206.439 150.091 206.098 150.709 205.842 151.52C205.586 152.331 205.458 153.269 205.458 154.336C205.458 155.403 205.564 156.341 205.778 157.152C206.034 157.92 206.375 158.517 206.802 158.944C207.271 159.371 207.804 159.584 208.402 159.584ZM245.138 188.64C242.876 188.64 240.828 188.085 238.994 186.976C237.202 185.867 235.794 184.373 234.77 182.496C233.746 180.576 233.234 178.421 233.234 176.032C233.234 173.515 233.724 171.317 234.706 169.44C235.73 167.52 237.138 166.027 238.93 164.96C240.722 163.851 242.791 163.296 245.138 163.296C247.484 163.296 249.532 163.851 251.282 164.96C253.074 166.027 254.46 167.52 255.442 169.44C256.466 171.317 256.978 173.515 256.978 176.032C256.978 178.421 256.444 180.576 255.378 182.496C254.354 184.373 252.946 185.867 251.154 186.976C249.404 188.085 247.399 188.64 245.138 188.64ZM245.138 181.28C245.735 181.28 246.247 181.067 246.674 180.64C247.1 180.171 247.42 179.552 247.634 178.784C247.847 178.016 247.954 177.099 247.954 176.032C247.954 174.923 247.847 173.984 247.634 173.216C247.42 172.405 247.1 171.787 246.674 171.36C246.247 170.891 245.735 170.656 245.138 170.656C244.54 170.656 244.007 170.891 243.538 171.36C243.111 171.787 242.77 172.405 242.514 173.216C242.3 173.984 242.194 174.923 242.194 176.032C242.194 177.099 242.3 178.016 242.514 178.784C242.727 179.552 243.068 180.171 243.538 180.64C244.007 181.067 244.54 181.28 245.138 181.28Z" fill="white"/>
<defs>
<linearGradient id="paint0_linear_0_1" x1="327" y1="163" x2="7.50048e-07" y2="163" gradientUnits="userSpaceOnUse">
<stop offset="0.125" stop-color="#3B0E93" stop-opacity="0.868802"/>
<stop offset="0.166667" stop-color="#453BB1" stop-opacity="0.760311"/>
<stop offset="0.244792" stop-color="#6216A8" stop-opacity="0.78335"/>
<stop offset="0.348958" stop-color="#8C00FB" stop-opacity="0.83"/>
<stop offset="0.489583" stop-color="#9B47CE"/>
<stop offset="0.520833" stop-color="#E589FC" stop-opacity="0.82"/>
<stop offset="0.947917" stop-color="#FA00FF" stop-opacity="0.716419"/>
</linearGradient>
</defs>
</svg>
